# xmcd
#
# Track frame offsets: 
#        150
#        25229
#        43434
#        58620
#        72570
#        90938
#        108443
#        128105
#        155983
#        175712
#        190347
#        204567
#        219737
#        240288
#        268749
#        298274
#        321696
#        332675
#
# Disc length: 4641 seconds
#
# Revision: 2
# Processed by: cddbd v1.5.2PL0 Copyright (c) Steve Scherf et al.
# Submitted via: ExactAudioCopyFreeDBPlugin 1.0
#
DISCID=1f121f12
DTITLE=The Isley Brothers - 3 and 3
DYEAR=1973
DGENRE=Rhythm and Blues
TTITLE0=That Lady (Parts 1 and 2)
TTITLE1=Don't Let Me Be Lonely Tonight
TTITLE2=If You Were There
TTITLE3=You Walk Your Way
TTITLE4=Listen to the Music
TTITLE5=What it Comes Down To
TTITLE6=Sunshine (Go Away Today)
TTITLE7=Summer Breeze (Parts 1 and 2)
TTITLE8=The Highways of My Life
TTITLE9=That Lady (Part 1) (single version)
TTITLE10=Summer Breeze (Part 1) (single version)
TTITLE11=The Highways of My Life (single version)
TTITLE12=Sunshine (Go Away Today) (SQ-Quad Mix)
TTITLE13=Summer Breeze (SQ-Quad Mix)
TTITLE14=Interview, Part 1:  That Lady
TTITLE15=Interview, Part 2:  Listen to the Music
TTITLE16=Interview, Part 3:  Summer Breeze
TTITLE17=Interview, Part 4:  The Highways of My Life - What it Comes D
TTITLE17=own To
EXTD=
EXTT0=
EXTT1=
EXTT2=
EXTT3=
EXTT4=
EXTT5=
EXTT6=
EXTT7=
EXTT8=
EXTT9=
EXTT10=
EXTT11=
EXTT12=
EXTT13=
EXTT14=
EXTT15=
EXTT16=
EXTT17=
PLAYORDER=
